<?xml version="1.0" encoding="UTF-8"?>
<svg id="Layer_1" data-name="Layer 1" xmlns="http://www.w3.org/2000/svg" viewBox="0 0 387.45 80.13">
  <defs>
    <style>
      .cls-1 {
        fill: #fff;
      }
    </style>
  </defs>
  <path class="cls-1" d="M34.7,0L0,20.03v40.07l34.7,20.03,34.7-20.03V20.03L34.7,0ZM66.94,58.68l-32.24,18.61L2.46,58.68V21.45L34.7,2.84l32.24,18.61v37.23Z"/>
  <g>
    <path class="cls-1" d="M34.7,5.1L4.42,22.59v34.96l30.28,17.48,30.28-17.48V22.59L34.7,5.1ZM24.37,31.51l-10.09,7.6,10.09,7.6v17.51l-3.51-2.03v-13.73l-8.74-6.58v15.27l-3.51-2.03v-30.13l3.51-2.03v13.37l8.74-6.58v-11.83l3.51-2.03v15.61ZM42.5,65.69l-3.51,2.03V16.47l-2.53-1.46v54.17l-1.76,1.02-1.76-1.02V15.01l-2.53,1.46v51.25l-3.51-2.03V14.44l7.8-4.5,7.8,4.5v51.25ZM60.79,55.13l-15.76,9.1V15.9l15.76,9.1v30.13Z"/>
    <polygon class="cls-1" points="57.27 27.03 48.54 21.99 48.54 58.15 57.27 53.1 57.27 27.03"/>
  </g>
  <g>
    <path class="cls-1" d="M120.71,25.49c-.96-1.38-2.86-1.71-4.23-.75l-17.59,12.28h-8.93v-9.79c0-1.68-1.36-3.04-3.04-3.04s-3.04,1.36-3.04,3.04v25.67c0,1.68,1.36,3.04,3.04,3.04s3.04-1.36,3.04-3.04v-9.79h8.93l17.59,12.29c.53.37,1.14.55,1.74.55.96,0,1.9-.45,2.5-1.3.96-1.38.62-3.27-.75-4.24l-14.81-10.34,14.81-10.34c1.38-.96,1.71-2.86.75-4.24Z"/>
    <g>
      <path class="cls-1" d="M166.95,24.39c-1.18-.45-2.51-.13-3.35.81l-16.12,17.93-16.11-17.93c-.84-.94-2.17-1.26-3.35-.81-1.18.45-1.95,1.58-1.95,2.84v25.67c0,1.68,1.36,3.04,3.04,3.04s3.04-1.36,3.04-3.04v-17.73l13.07,14.55c.58.64,1.4,1.01,2.26,1.01s1.69-.37,2.26-1.01l13.07-14.55v17.73c0,1.68,1.36,3.04,3.04,3.04s3.04-1.36,3.04-3.04v-25.67c0-1.26-.78-2.39-1.95-2.84Z"/>
      <path class="cls-1" d="M384.41,24.19c-1.68,0-3.04,1.36-3.04,3.04v9.32h-30.67v-9.32c0-1.68-1.36-3.04-3.04-3.04s-3.04,1.36-3.04,3.04v25.67c0,1.68,1.36,3.04,3.04,3.04s3.04-1.36,3.04-3.04v-10.27h30.67v10.27c0,1.68,1.36,3.04,3.04,3.04s3.04-1.36,3.04-3.04v-25.67c0-1.68-1.36-3.04-3.04-3.04Z"/>
      <path class="cls-1" d="M196.45,24.19h-8.05c-8.75,0-15.87,7.12-15.87,15.87s7.12,15.88,15.87,15.88h8.05c8.75,0,15.87-7.12,15.87-15.88s-7.12-15.87-15.87-15.87ZM196.45,49.86h-8.05c-5.4,0-9.79-4.39-9.79-9.79s4.39-9.79,9.79-9.79h8.05c5.4,0,9.79,4.39,9.79,9.79s-4.39,9.79-9.79,9.79Z"/>
      <path class="cls-1" d="M296.73,27.23c0-1.68-1.36-3.04-3.04-3.04h-20.97c-8.75,0-15.87,7.12-15.87,15.87s7.12,15.88,15.87,15.88h20.97c1.68,0,3.04-1.36,3.04-3.04s-1.36-3.04-3.04-3.04h-20.97c-5.4,0-9.79-4.39-9.79-9.79s4.39-9.79,9.79-9.79h20.97c1.68,0,3.04-1.36,3.04-3.04Z"/>
      <path class="cls-1" d="M316.11,30.28h20.97c1.68,0,3.04-1.36,3.04-3.04s-1.36-3.04-3.04-3.04h-20.97c-8.75,0-15.87,7.12-15.87,15.87s7.12,15.88,15.87,15.88h20.97c1.68,0,3.04-1.36,3.04-3.04s-1.36-3.04-3.04-3.04h-20.97c-5.4,0-9.79-4.39-9.79-9.79s4.39-9.79,9.79-9.79Z"/>
      <path class="cls-1" d="M251.8,24.19h-33.84c-1.68,0-3.04,1.36-3.04,3.04s1.36,3.04,3.04,3.04h13.68v22.62c0,1.68,1.36,3.04,3.04,3.04s3.04-1.36,3.04-3.04v-22.62h14.07c1.68,0,3.04-1.36,3.04-3.04s-1.36-3.04-3.04-3.04Z"/>
      <path class="cls-1" d="M271.81,37.03c-1.68,0-3.04,1.36-3.04,3.04s1.36,3.04,3.04,3.04h20.23c1.68,0,3.04-1.36,3.04-3.04s-1.36-3.04-3.04-3.04h-20.23Z"/>
    </g>
  </g>
</svg>